<svg width="28" height="28" viewBox="0 0 28 28" fill="none" xmlns="http://www.w3.org/2000/svg">
<path fill-rule="evenodd" clip-rule="evenodd" d="M3.79167 12.5417C3.79167 7.71604 7.71604 3.79167 12.5417 3.79167C17.3673 3.79167 21.2917 7.71604 21.2917 12.5417C21.2917 17.3673 17.3673 21.2917 12.5417 21.2917C7.71604 21.2917 3.79167 17.3673 3.79167 12.5417ZM26.6977 24.6356L21.7467 19.6831C23.2823 17.7085 24.2083 15.2338 24.2083 12.5417C24.2083 6.10896 18.9744 0.875 12.5417 0.875C6.10896 0.875 0.875 6.10896 0.875 12.5417C0.875 18.9744 6.10896 24.2083 12.5417 24.2083C15.2338 24.2083 17.7085 23.2823 19.6831 21.7467L24.6356 26.6977C24.92 26.9821 25.2933 27.125 25.6667 27.125C26.04 27.125 26.4133 26.9821 26.6977 26.6977C27.2679 26.1275 27.2679 25.2058 26.6977 24.6356Z" fill="black"/>
</svg>
